<!--?xml version="1.0" standalone="no"?--><svg version="1.0" xmlns="http://www.w3.org/2000/svg" width="226.000000pt" height="300.000000pt" viewBox="0 0 226.000000 300.000000" preserveAspectRatio="xMidYMid meet">
<metadata>
  <rdf:rdf xmlns:rdf="http://www.w3.org/1999/02/22-rdf-syntax-ns#" xmlns:rdfs="http://www.w3.org/2000/01/rdf-schema#" xmlns:dc="http://purl.org/dc/elements/1.1/">
    <rdf:description dc:title="cook fat" dc:publisher="Hiox" dc:date="2015-04-21" dc:format="image/svg+xml" dc:language="en">
      <dc:creator>
        <rdf:bag>
          <rdf:li>svgimages.com</rdf:li>
        </rdf:bag>
      </dc:creator>
    </rdf:description>
  </rdf:rdf>
</metadata>
<g transform="translate(0.000000,300.000000) scale(0.100000,-0.100000)" fill="#050505" stroke="none">
<path d="M796 2982 c-17 -2 -62 -16 -100 -32 -39 -15 -97 -31 -129 -34 -32 -4
-63 -14 -70 -22 -13 -17 -43 -46 -69 -69 -29 -24 -22 -58 15 -80 75 -45 108
-58 120 -46 8 8 6 11 -10 11 -12 0 -25 5 -29 12 -5 7 -1 9 13 6 34 -9 16 27
-29 57 -22 15 -37 29 -34 32 3 3 32 -11 63 -32 44 -29 53 -32 36 -13 -38 41
-25 44 16 4 52 -51 68 -43 31 15 -27 41 -29 49 -19 77 6 18 15 32 19 32 5 0 4
-13 -1 -29 -9 -25 -6 -37 16 -75 31 -53 50 -60 40 -16 -8 36 2 40 15 5 12 -31
34 -34 25 -2 -6 20 -5 21 8 5 24 -30 47 -22 48 15 1 17 5 43 9 57 6 20 8 13 9
-28 1 -45 4 -53 19 -50 12 2 16 11 14 27 -3 18 0 22 12 18 8 -3 18 -2 21 3 4
6 11 10 17 10 6 0 4 -8 -5 -18 -24 -27 -21 -32 17 -32 37 0 41 5 51 74 4 25
12 49 18 53 9 6 8 -8 -10 -99 -7 -37 23 -39 39 -3 6 14 15 25 20 25 5 0 4 -9
-2 -21 -6 -11 -9 -25 -7 -32 2 -7 21 21 41 62 53 103 46 116 -60 117 -43 1
-95 5 -114 10 -19 5 -48 8 -64 6z" id="node1" class="node"></path>
<path d="M1720 2874 c0 -15 -18 -59 -40 -99 -44 -80 -48 -101 -24 -147 16 -31
15 -68 -2 -141 -5 -23 -1 -33 28 -60 19 -17 49 -40 66 -50 l31 -17 6 47 c10
78 33 112 110 161 39 25 90 65 115 91 25 25 55 54 68 63 31 24 28 38 -8 38
-23 0 -44 -12 -82 -47 l-50 -48 -88 0 c-72 0 -92 -3 -109 -19 -12 -11 -21 -15
-21 -9 0 5 9 18 21 29 18 16 34 19 104 16 78 -3 84 -1 115 25 l33 28 -44 9
c-54 12 -146 12 -177 2 -22 -8 -22 -8 -16 64 6 56 4 74 -7 81 -23 14 -29 11
-29 -17z" id="node2" class="node"></path>
<path d="M756 2754 c-81 -19 -186 -72 -185 -93 0 -9 8 -34 18 -55 22 -50 52
-54 146 -19 53 19 96 27 178 31 59 2 107 8 107 12 0 28 -25 126 -34 132 -18
13 -167 7 -230 -8z m209 -59 c7 -30 9 -55 5 -55 -7 0 -30 84 -30 112 0 25 13
-4 25 -57z m-30 9 c3 -26 9 -53 12 -60 3 -8 1 -14 -5 -14 -5 0 -13 17 -17 38
-3 20 -9 47 -12 60 -3 12 -1 22 5 22 5 0 13 -21 17 -46z" id="node3" class="node"></path>
<path d="M2145 2753 c-11 -3 -29 -15 -40 -27 -11 -11 -31 -29 -45 -38 -25 -17
-24 -17 45 -17 112 1 140 23 40 32 -33 3 -31 4 15 5 63 3 86 13 77 36 -6 16
-48 20 -92 9z" id="node4" class="node"></path>
<path d="M575 2729 c7 -11 35 -12 35 -1 0 4 -9 8 -20 9 -11 1 -18 -2 -15 -8z" id="node5" class="node"></path>
<path d="M835 2599 c-72 -17 -165 -50 -165 -60 0 -5 9 -18 21 -30 15 -15 18
-26 12 -42 -4 -12 -8 -39 -7 -59 0 -32 -3 -38 -22 -38 -16 0 -23 8 -27 30 -7
34 -40 42 -55 13 -20 -37 39 -111 77 -98 12 3 21 2 21 -3 0 -16 -30 -23 -52
-11 -16 9 -19 8 -12 -3 5 -7 9 -40 9 -73 l0 -60 45 -22 c109 -53 279 -64 359
-23 56 28 74 54 79 115 l4 55 -31 0 c-17 0 -42 -7 -55 -15 -13 -9 -45 -17 -72
-20 -27 -2 -72 -7 -99 -10 -46 -6 -54 -4 -83 20 -33 28 -39 52 -22 86 13 24
55 27 46 3 -8 -22 11 -44 38 -44 28 0 66 39 66 67 0 12 8 23 20 26 23 6 27 -8
5 -17 -13 -5 -13 -8 2 -26 28 -33 52 -43 69 -29 21 17 17 40 -16 83 -49 65
-39 114 28 142 l26 10 -22 22 c-18 18 -33 22 -84 21 -35 -1 -81 -5 -103 -10z
m26 -98 c19 -16 21 -21 9 -24 -73 -24 -77 -24 -104 -10 -32 17 -26 27 24 41
48 14 45 14 71 -7z m39 -90 c0 -43 -23 -58 -49 -32 -36 36 -25 56 32 60 12 1
17 -7 17 -28z m200 -177 c0 -36 -60 -74 -117 -74 -39 0 -103 31 -103 51 0 6
12 1 26 -10 14 -11 41 -23 58 -27 42 -7 102 17 111 45 6 19 25 30 25 15z" id="node6" class="node"></path>
<path d="M771 2491 c-22 -14 5 -23 49 -16 22 4 40 11 40 16 0 11 -70 12 -89 0z" id="node7" class="node"></path>
<path d="M866 2423 c-12 -12 -6 -43 9 -43 8 0 15 9 15 19 0 21 -13 34 -24 24z" id="node8" class="node"></path>
<path d="M537 2549 c-12 -7 -16 -17 -12 -30 5 -16 3 -20 -12 -17 -13 2 -19 -4
-21 -24 -3 -23 1 -28 19 -28 21 0 21 -1 5 -19 -10 -11 -15 -25 -11 -30 10 -18
44 -12 63 10 38 46 75 46 94 0 11 -24 12 -23 20 29 7 42 5 57 -5 65 -7 5 -16
18 -20 28 -7 20 -43 23 -49 5 -3 -9 -9 -8 -22 5 -20 20 -24 20 -49 6z" id="node9" class="node"></path>
<path d="M1023 2542 c-54 -21 -59 -43 -7 -32 21 5 41 15 45 22 8 12 12 29 7
27 -2 0 -22 -8 -45 -17z" id="node10" class="node"></path>
<path d="M983 2493 c-7 -2 -13 -11 -13 -18 0 -10 11 -12 40 -8 39 6 40 5 40
-25 0 -19 -7 -35 -17 -41 -14 -8 -11 -12 22 -25 38 -16 65 -15 65 2 0 5 -13
26 -30 47 -16 20 -32 45 -35 56 -6 18 -42 25 -72 12z" id="node11" class="node"></path>
<path d="M1012 2439 c1 -13 8 -23 13 -21 15 3 12 35 -3 40 -9 3 -13 -3 -10
-19z" id="node12" class="node"></path>
<path d="M1618 2432 c-5 -15 -21 -56 -33 -92 -13 -36 -33 -91 -44 -122 -12
-32 -21 -74 -21 -94 0 -21 -3 -34 -7 -31 -3 4 -12 2 -20 -4 -9 -9 -17 -8 -27
1 -34 28 -258 63 -300 47 -29 -11 31 -96 95 -134 69 -42 125 -95 146 -138 16
-33 20 -35 64 -35 61 0 229 43 281 72 58 33 75 60 97 165 17 76 40 146 77 229
3 7 -12 13 -41 16 -60 7 -165 60 -216 108 l-40 38 -11 -26z" id="node13" class="node"></path>
<path d="M1806 2423 c-3 -8 -6 -27 -6 -43 0 -23 6 -30 33 -39 57 -18 107 -24
107 -13 0 15 -53 66 -94 90 -29 17 -35 18 -40 5z" id="node14" class="node"></path>
<path d="M1153 2407 c0 -44 -21 -60 -69 -53 -36 5 -42 3 -52 -19 -10 -22 -8
-24 18 -30 44 -10 98 12 115 45 18 36 19 41 1 65 -13 18 -13 17 -13 -8z" id="node15" class="node"></path>
<path d="M767 2331 c-3 -12 3 -31 15 -46 16 -21 28 -25 70 -25 34 0 62 7 85
21 l34 21 -22 24 -22 23 -34 -29 c-47 -42 -84 -37 -110 14 -10 17 -10 17 -16
-3z" id="node16" class="node"></path>
<path d="M970 2285 c-10 -12 -9 -15 8 -15 27 0 52 10 52 21 0 15 -47 10 -60
-6z" id="node17" class="node"></path>
<path d="M555 2156 c-44 -21 -121 -86 -101 -86 4 0 39 7 78 16 97 22 146 15
214 -32 49 -34 62 -38 111 -38 48 1 59 5 86 33 l32 31 -68 0 c-98 0 -235 36
-270 72 -16 15 -29 28 -30 28 -1 0 -24 -11 -52 -24z" id="node18" class="node"></path>
<path d="M1093 2140 l-31 -28 25 -7 c14 -3 26 -5 27 -3 13 21 24 58 18 62 -4
2 -21 -9 -39 -24z" id="node19" class="node"></path>
<path d="M1132 2099 c2 -7 10 -15 17 -17 8 -3 12 1 9 9 -2 7 -10 15 -17 17 -8
3 -12 -1 -9 -9z" id="node20" class="node"></path>
<path d="M1040 2080 c0 -29 43 -84 82 -103 29 -14 47 -16 77 -10 l39 8 -21 25
c-38 44 -91 79 -135 88 -37 9 -42 8 -42 -8z" id="node21" class="node"></path>
<path d="M551 2073 c-118 -22 -164 -52 -195 -127 -11 -26 -62 -83 -149 -167
-150 -144 -191 -205 -191 -279 0 -62 25 -109 105 -194 l68 -73 61 30 c45 22
79 31 134 35 l73 4 -13 78 c-14 91 -27 120 -55 120 -22 0 -39 32 -21 38 7 2
10 8 7 13 -3 4 7 11 22 14 72 15 111 29 149 56 59 40 140 134 171 198 15 30
29 49 31 43 8 -24 -55 -120 -124 -189 -69 -70 -136 -112 -179 -113 -11 0 -27
-5 -35 -10 -12 -8 -12 -13 6 -37 26 -35 30 -48 47 -146 11 -65 11 -80 1 -84
-11 -4 -10 -12 2 -41 29 -68 34 -96 24 -128 -20 -59 -111 -124 -175 -124 -31
0 -31 -5 -4 -163 19 -113 20 -164 4 -229 -7 -28 -24 -28 420 8 366 29 490 43
510 58 16 12 46 107 71 225 14 68 14 75 -1 84 -38 21 -34 96 6 118 16 8 19 21
19 94 0 91 -5 115 -25 115 -16 0 -55 47 -55 66 0 7 11 26 25 42 l24 29 -20 75
c-20 72 -21 75 -51 75 -59 0 -87 67 -49 114 19 24 19 24 -15 90 -33 62 -36 65
-70 65 -27 0 -42 7 -56 24 -19 23 -19 30 -3 90 6 22 3 21 -27 -12 -27 -31
-118 -78 -150 -78 -3 0 4 28 18 62 13 34 24 62 24 62 0 1 -23 -1 -51 -3 -44
-3 -58 2 -111 34 -78 49 -108 54 -197 38z" id="node22" class="node"></path>
<path d="M968 2049 c-28 -28 -51 -64 -61 -94 -10 -27 -16 -49 -14 -51 1 -1 25
9 54 21 40 18 56 32 72 64 19 36 20 44 8 73 l-13 32 -46 -45z" id="node23" class="node"></path>
<path d="M1056 1997 c3 -10 9 -15 12 -12 3 3 0 11 -7 18 -10 9 -11 8 -5 -6z" id="node24" class="node"></path>
<path d="M1258 1979 c21 -23 13 -29 -38 -29 -47 0 -50 -2 -50 -25 0 -14 -5
-33 -11 -43 -17 -26 56 -149 93 -158 50 -11 73 -68 44 -109 -12 -18 -11 -30 8
-98 11 -42 26 -77 33 -77 7 0 24 -10 39 -23 35 -31 36 -73 0 -103 -25 -22 -25
-24 -19 -117 5 -87 8 -96 30 -106 60 -27 41 -131 -24 -131 -18 0 -23 -6 -23
-24 0 -13 -11 -68 -25 -122 -14 -54 -25 -112 -25 -128 l0 -29 113 6 c61 4 151
7 200 7 l87 0 0 40 c0 22 11 97 25 166 64 323 9 545 -185 748 -73 77 -110 129
-110 158 0 26 -48 114 -78 143 -31 30 -108 80 -84 54z" id="node25" class="node"></path>
<path d="M1066 1961 c-32 -36 -9 -91 38 -91 26 0 56 28 56 53 0 9 -17 25 -39
36 -37 19 -39 19 -55 2z" id="node26" class="node"></path>
<path d="M1206 1697 c-38 -28 -13 -97 34 -97 28 0 53 25 53 55 0 30 -25 55
-53 55 -9 0 -24 -6 -34 -13z" id="node27" class="node"></path>
<path d="M1297 1402 c-33 -36 -8 -92 40 -92 25 0 53 30 53 57 0 46 -62 69 -93
35z" id="node28" class="node"></path>
<path d="M320 1274 c-30 -8 -65 -22 -78 -30 l-24 -16 23 -24 c13 -14 43 -31
69 -39 25 -7 39 -14 32 -14 -7 -1 -22 -21 -33 -46 -19 -42 -22 -45 -59 -45
-46 0 -47 3 -19 31 41 41 -3 64 -58 29 -34 -20 -53 -64 -36 -81 14 -14 111
-39 149 -39 43 0 114 26 142 53 57 53 63 99 22 190 -24 54 -35 56 -130 31z" id="node29" class="node"></path>
<path d="M110 1233 c-32 -22 -49 -44 -50 -62 0 -10 10 -5 29 13 16 15 41 29
55 30 18 0 26 6 24 16 -5 22 -29 23 -58 3z" id="node30" class="node"></path>
<path d="M196 1212 c-3 -3 -6 -18 -6 -34 0 -25 3 -28 23 -23 30 8 51 -16 45
-50 -8 -37 19 -32 36 8 13 31 12 32 -13 44 -14 6 -38 22 -53 36 -15 14 -29 22
-32 19z" id="node31" class="node"></path>
<path d="M95 1167 c-21 -21 -35 -45 -35 -59 0 -43 44 -66 57 -30 4 9 19 32 35
50 57 66 5 101 -57 39z" id="node32" class="node"></path>
<path d="M1316 1064 c-22 -21 -20 -50 4 -74 24 -24 38 -25 68 -4 24 16 28 44
12 75 -13 23 -62 26 -84 3z" id="node33" class="node"></path>
<path d="M1262 658 c-7 -9 -34 -19 -60 -22 -119 -17 -109 -10 -136 -95 -30
-94 -52 -182 -60 -239 l-6 -42 39 0 c69 0 132 -36 152 -87 8 -22 10 -22 91 31
46 29 98 61 116 72 21 12 32 26 32 41 0 35 25 89 74 157 40 57 96 157 96 172
0 4 -72 5 -160 2 -137 -5 -159 -3 -162 10 -3 13 -4 13 -16 0z" id="node34" class="node"></path>
<path d="M790 594 c-140 -12 -265 -23 -277 -23 -21 -1 -23 -6 -23 -64 0 -35 9
-106 20 -158 13 -61 20 -133 20 -206 0 -84 3 -113 13 -113 18 0 83 37 141 80
78 58 223 138 265 145 l37 6 12 77 c7 42 26 120 42 172 34 109 34 110 18 109
-7 -1 -128 -12 -268 -25z" id="node35" class="node"></path>
<path d="M1308 203 c-103 -65 -106 -68 -111 -107 -2 -23 -3 -42 -2 -44 2 -2
103 3 226 10 l224 13 9 37 c12 50 -10 106 -53 135 -28 19 -48 23 -111 23 l-76
0 -106 -67z" id="node36" class="node"></path>
<path d="M951 239 c-44 -8 -203 -96 -272 -151 -20 -15 -55 -38 -78 -51 l-41
-24 52 4 c29 2 164 10 300 18 136 7 252 16 258 20 5 3 10 30 10 60 0 107 -85
152 -229 124z" id="node37" class="node"></path>
</g>
<g transform="translate(0.000000,300.000000) scale(0.100000,-0.100000)" fill="#A0A0A0" stroke="none">

<path d="M940 2752 c0 -28 23 -112 30 -112 4 0 2 25 -5 55 -12 53 -25 82 -25
57z" id="node39" class="node"></path>
<path d="M913 2728 c3 -13 9 -40 12 -60 4 -21 12 -38 17 -38 6 0 8 6 5 14 -3
7 -9 34 -12 60 -4 25 -12 46 -17 46 -6 0 -8 -10 -5 -22z" id="node40" class="node"></path>


<path d="M1075 2219 c-9 -28 -69 -52 -111 -45 -17 4 -44 16 -58 27 -14 11 -26
16 -26 10 0 -20 64 -51 103 -51 57 0 117 38 117 74 0 15 -19 4 -25 -15z" id="node43" class="node"></path>
</g>
</svg>